name Walk4.mot
datacolumns 19
datarows 15
range 2.48000000 2.55000000
endheader

                time	   L_ground_force_vx	   L_ground_force_vy	   L_ground_force_vz	   L_ground_force_px	   L_ground_force_py	   L_ground_force_pz	   R_ground_force_vx	   R_ground_force_vy	   R_ground_force_vz	   R_ground_force_px	   R_ground_force_py	   R_ground_force_pz	   L_ground_torque_x	   L_ground_torque_y	   L_ground_torque_z	   R_ground_torque_x	   R_ground_torque_y	   R_ground_torque_z	
          2.48000000	          0.01181092	          0.01993362	         -0.00184117	         -0.00021202	          0.00000000	         -0.00004257	        -34.98573322	        668.53222282	        -38.75990095	          0.11756486	          0.00000000	          0.08496853	          0.00000000	          0.00017037	          0.00000000	          0.00000000	          5.76319747	          0.00000000	
          2.48500000	          0.00585908	          0.00437886	         -0.00147485	         -0.00014933	          0.00000000	         -0.00003029	        -32.81510932	        663.40861495	        -38.29229533	          0.11806513	          0.00000000	          0.08523206	          0.00000000	          0.00011771	          0.00000000	          0.00000000	          5.55908249	          0.00000000	
          2.49000000	          0.00157890	         -0.00594241	         -0.00112329	         -0.00009732	          0.00000000	         -0.00002002	        -30.70716569	        658.48003560	        -37.86775464	          0.11856778	          0.00000000	          0.08549163	          0.00000000	          0.00007464	          0.00000000	          0.00000000	          5.36128239	          0.00000000	
          2.49500000	         -0.00129077	         -0.01209128	         -0.00080900	         -0.00005627	          0.00000000	         -0.00001185	        -28.66098612	        653.79247256	        -37.47121661	          0.11907120	          0.00000000	          0.08574796	          0.00000000	          0.00004111	          0.00000000	          0.00000000	          5.16866952	          0.00000000	
          2.50000000	         -0.00302895	         -0.01507815	         -0.00054347	         -0.00002550	          0.00000000	         -0.00000567	        -26.67462614	        649.39735260	        -37.09009134	          0.11957423	          0.00000000	          0.08600127	          0.00000000	          0.00001636	          0.00000000	          0.00000000	          4.97995773	          0.00000000	
          2.50500000	         -0.00390405	         -0.01580107	         -0.00033021	         -0.00000374	          0.00000000	         -0.00000126	        -24.74523141	        645.34668583	        -36.71633175	          0.12007491	          0.00000000	          0.08625155	          0.00000000	         -0.00000081	          0.00000000	          0.00000000	          4.79415050	          0.00000000	
          2.51000000	         -0.00415648	         -0.01501500	         -0.00016734	          0.00001050	          0.00000000	          0.00000167	        -22.86888574	        641.68661482	        -36.34652272	          0.12057024	          0.00000000	          0.08649681	          0.00000000	         -0.00001175	          0.00000000	          0.00000000	          4.61066366	          0.00000000	
          2.51500000	         -0.00398963	         -0.01332340	         -0.00004965	          0.00001881	          0.00000000	          0.00000341	        -21.04106484	        638.45857838	        -35.98099036	          0.12105991	          0.00000000	          0.08673531	          0.00000000	         -0.00001784	          0.00000000	          0.00000000	          4.42891082	          0.00000000	
          2.52000000	         -0.00356710	         -0.01118489	          0.00002974	          0.00002264	          0.00000000	          0.00000426	        -19.25677818	        635.69981276	        -35.62235297	          0.12154729	          0.00000000	          0.08696663	          0.00000000	         -0.00002033	          0.00000000	          0.00000000	          4.24782892	          0.00000000	
          2.52500000	         -0.00301402	         -0.00892891	          0.00007830	          0.00002331	          0.00000000	          0.00000447	        -17.51032236	        633.43297431	        -35.27464801	          0.12203489	          0.00000000	          0.08719031	          0.00000000	         -0.00002033	          0.00000000	          0.00000000	          4.06636568	          0.00000000	
          2.53000000	         -0.00242098	         -0.00677603	          0.00010325	          0.00002190	          0.00000000	          0.00000425	        -15.79571947	        631.66302254	        -34.94178755	          0.12252494	          0.00000000	          0.08740595	          0.00000000	         -0.00001871	          0.00000000	          0.00000000	          3.88377472	          0.00000000	
          2.53500000	         -0.00184919	         -0.00485953	          0.00011109	          0.00001926	          0.00000000	          0.00000377	        -14.10715438	        630.37740313	        -34.62659638	          0.12301981	          0.00000000	          0.08761314	          0.00000000	         -0.00001620	          0.00000000	          0.00000000	          3.69941082	          0.00000000	
          2.54000000	         -0.00133627	         -0.00324618	          0.00010732	          0.00001605	          0.00000000	          0.00000317	        -12.43875218	        629.54933784	        -34.33091135	          0.12352068	          0.00000000	          0.08781211	          0.00000000	         -0.00001330	          0.00000000	          0.00000000	          3.51290189	          0.00000000	
          2.54500000	         -0.00090166	         -0.00195484	          0.00009642	          0.00001272	          0.00000000	          0.00000253	        -10.78428069	        629.14434366	        -34.05548953	          0.12402627	          0.00000000	          0.08800417	          0.00000000	         -0.00001040	          0.00000000	          0.00000000	          3.32379855	          0.00000000	
          2.55000000	         -0.00055165	         -0.00097212	          0.00008181	          0.00000957	          0.00000000	          0.00000192	         -9.13624643	        629.12611827	        -33.80124842	          0.12453301	          0.00000000	          0.08819093	          0.00000000	         -0.00000771	          0.00000000	          0.00000000	          3.13153158	          0.00000000	
